<?xml version="1.0" encoding="utf-8"?>
<!-- Generator: Adobe Illustrator 22.1.0, SVG Export Plug-In . SVG Version: 6.00 Build 0)  -->
<svg version="1.1" id="Ebene_1" xmlns="http://www.w3.org/2000/svg" xmlns:xlink="http://www.w3.org/1999/xlink" x="0px" y="0px"
	 viewBox="0 0 100 78" style="enable-background:new 0 0 100 78;" xml:space="preserve">
<style type="text/css">
	.st0{fill:#DD1843;}
	.st1{fill:#011627;}
</style>
<g>
	<path class="st0" d="M61.5,29.3c0,5.7-3.8,10.5-9.2,11.5c-3.7,0.7-6.9-0.4-9.6-3c-5-4.9-4.6-13.4,0.9-17.8c5.7-4.6,14.2-2.3,17,4.8
		C61.2,26.2,61.5,27.7,61.5,29.3z"/>
	<path class="st0" d="M35.2,40.7c0-2.7,0.8-4.8,2.4-6.5c0.6-0.7,0.6-0.7,1,0.2c1.7,4.2,4.8,6.9,9.2,8c1,0.2,1.9,0.3,2.9,0.2
		c0.9,0,0.9,0,0.6,0.9c-1.2,3.4-4.4,5.7-7.8,5.6c-3.5,0-6.6-2.4-7.8-5.9C35.4,42.3,35.2,41.3,35.2,40.7 M66.9,10
		c-0.2,4.2-2.1,7.8-6.1,10.3c-0.5,0.3-0.8,0.4-1.2-0.1c-0.9-1-1.9-1.9-3.1-2.5c-0.3-0.2-0.4-0.4-0.2-0.7c1.5-2.8,2.5-5.8,3.5-8.8
		c0.9-2.6,2-5.1,3.9-7.2c0.2-0.2,0.3-0.3,0.5-0.5c0.3-0.3,0.4-0.2,0.6,0.1C65.8,3.5,66.8,6.5,66.9,10"/>
	<path class="st0" d="M64.1,0.1c-0.2,0.2-0.2,0.3-0.3,0.4C61.9,2,60.6,3.9,59.6,6c-1.2,2.5-2.3,5.1-3.6,7.6c-0.5,0.9-1,1.7-1.6,2.5
		c-0.2,0.3-0.5,0.4-0.9,0.3c-1.3-0.3-2.7-0.5-4.1-0.4c-0.5,0.1-0.6-0.2-0.7-0.6C47.9,9.9,51,4,57.1,1.8c2.1-0.8,4.2-1.2,6.4-1.6
		C63.6,0.1,63.8,0.1,64.1,0.1 M30,29.2c0.1-3.3,1.3-6.3,4.2-8.5c1.1-0.9,2.4-1.3,3.8-1.5c0.4-0.1,0.7,0,1,0.3
		c0.5,0.5,1.3,0.8,1.4,1.3c0.1,0.5-0.6,1.1-0.9,1.7c-1.6,2.8-2.1,5.8-1.7,8.9c0.1,0.4-0.1,0.6-0.3,0.8c-1.6,1.3-2.7,2.9-3.3,4.8
		c-0.2,0.7-0.3,0.7-0.8,0.2C31,35.1,30,32.4,30,29.2 M70,30c-0.1,3.4-1.2,6.5-4,8.7c-1.2,1-1.3,1-1.7-0.5c-0.4-1.2-1-2.3-1.9-3.2
		c-0.3-0.3-0.3-0.6-0.2-0.9c1.4-4,1.1-7.9-1-11.6c-0.2-0.4-0.2-0.6,0.2-0.8c0.6-0.4,1.2-0.8,1.8-1.2c0.3-0.3,0.6-0.3,1-0.1
		c2.8,1.3,4.4,3.5,5.3,6.4C69.9,27.8,70.1,28.9,70,30 M63.2,41.8c0,3-2.4,5.9-5.8,6.6c-2.1,0.4-3.9-0.2-5.5-1.6
		c-0.3-0.2-0.3-0.4-0.1-0.8c0.6-1,1.1-2.1,1.3-3.2c0.1-0.4,0.3-0.5,0.6-0.6c3.1-0.9,5.5-2.8,7.2-5.5c0.3-0.4,0.5-0.4,0.8,0
		C62.7,38,63.2,39.5,63.2,41.8 M40.8,3.7c-0.1,2.6,1.1,4.8,2.3,7c1,1.8,2,3.5,2.7,5.4c0.2,0.5,0.1,0.8-0.4,1
		c-1.2,0.5-2.4,1.2-3.3,2.1c-0.4,0.3-0.6,0.3-1,0c-3.4-2.5-4.7-6.5-3.3-10.4C38.5,6.9,39.5,5.2,40.8,3.7 M50.1,54.2
		c-2.1,0-3.9-1.1-4.5-2.7c-0.4-1-0.2-1,0.6-1.2c1.5-0.4,2.8-1.2,4-2.2c0.3-0.3,0.5-0.3,0.9,0c0.9,0.8,2,1.4,3.2,1.7
		c0.5,0.1,0.6,0.4,0.6,0.8c-0.1,1.1-0.6,1.9-1.4,2.6C52.4,53.9,51.3,54.2,50.1,54.2"/>
	<path class="st0" d="M47,15.3c-1.3-2.5-3-4.6-4.4-6.8c-0.8-1.3-1.4-2.8-1.6-4.3c0-0.2-0.2-0.5,0.1-0.6c0.2-0.1,0.4,0.1,0.6,0.2
		c2.1,1,4.2,2.1,5.8,4c0.4,0.5,0.6,0.9,0.3,1.6c-0.6,1.6-0.7,3.4-0.7,5.1c0,0.3,0,0.5,0,0.8C47.1,15.1,47.1,15.2,47,15.3"/>
	<path class="st1" d="M8.2,77.2v-7l-2.9,5.3H4.5l-2.9-5.3v7H0v-9.8h1.7l3.2,6l3.2-6h1.7v9.8L8.2,77.2z M15.7,72.3
		c0,0.5,0.1,0.9,0.2,1.3c0.1,0.4,0.3,0.8,0.6,1.1c0.3,0.3,0.6,0.6,1,0.8c0.4,0.2,0.8,0.3,1.3,0.3c0.5,0,0.9-0.1,1.3-0.3
		c0.4-0.2,0.7-0.5,1-0.8c0.3-0.3,0.5-0.7,0.6-1.1c0.1-0.4,0.2-0.9,0.2-1.3c0-0.5-0.1-0.9-0.2-1.3c-0.1-0.4-0.3-0.8-0.6-1.1
		c-0.3-0.3-0.6-0.6-1-0.8c-0.4-0.2-0.8-0.3-1.3-0.3c-0.5,0-0.9,0.1-1.3,0.3c-0.4,0.2-0.7,0.5-1,0.8c-0.3,0.3-0.5,0.7-0.6,1.1
		C15.8,71.5,15.7,71.9,15.7,72.3 M18.8,77.3c-0.7,0-1.3-0.1-1.9-0.4c-0.6-0.3-1-0.7-1.5-1.1c-0.4-0.5-0.7-1-0.9-1.6
		c-0.2-0.6-0.3-1.2-0.3-1.8c0-0.7,0.1-1.3,0.4-1.9c0.2-0.6,0.6-1.1,1-1.6c0.4-0.5,0.9-0.8,1.5-1.1c0.6-0.3,1.2-0.4,1.9-0.4
		c0.7,0,1.3,0.1,1.9,0.4c0.6,0.3,1,0.7,1.5,1.1c0.4,0.5,0.7,1,0.9,1.6c0.7,1.8,0.3,3.8-1,5.3c-0.4,0.5-0.9,0.8-1.5,1.1
		C20,77.2,19.4,77.3,18.8,77.3 M33.4,74.3c0-0.3-0.1-0.6-0.3-0.8c-0.2-0.2-0.4-0.3-0.7-0.3h-2.6v2.1h2.5c0.3,0,0.5-0.1,0.7-0.3
		C33.3,74.8,33.4,74.6,33.4,74.3L33.4,74.3z M29.8,69.4v2h2.2c0.2,0,0.5-0.1,0.7-0.2c0.2-0.2,0.3-0.4,0.3-0.8c0-0.3-0.1-0.6-0.3-0.7
		c-0.2-0.2-0.4-0.3-0.6-0.3H29.8L29.8,69.4z M35.7,74.7c0,0.4-0.1,0.8-0.3,1.1c-0.2,0.3-0.4,0.6-0.7,0.8c-0.3,0.2-0.7,0.4-1.1,0.5
		c-0.4,0.1-0.8,0.2-1.3,0.2h-4.8v-9.8H33c0.3,0,0.6,0.1,0.9,0.2c0.3,0.1,0.5,0.3,0.7,0.6c0.4,0.5,0.6,1.1,0.6,1.7
		c0,0.5-0.1,0.9-0.4,1.3c-0.2,0.4-0.6,0.7-1.1,0.9c0.6,0.2,1,0.5,1.3,0.9C35.5,73.5,35.7,74.1,35.7,74.7L35.7,74.7z M46.6,75.2v2
		h-6.9v-9.8h6.7v2H42v1.9h3.9v1.8H42v2.1L46.6,75.2z M53,72.1h2.1c0.3,0,0.5-0.1,0.7-0.4c0.2-0.3,0.3-0.6,0.3-1c0-0.4-0.1-0.7-0.3-1
		c-0.2-0.2-0.5-0.4-0.7-0.4h-2V72.1z M50.8,77.2v-9.8h4.4c0.5,0,0.9,0.1,1.3,0.3c0.4,0.2,0.7,0.4,1,0.8c0.3,0.3,0.5,0.7,0.7,1.1
		c0.2,0.4,0.2,0.8,0.2,1.2c0,0.6-0.1,1.2-0.4,1.7c-0.3,0.5-0.7,0.9-1.2,1.2l2.2,3.6h-2.5l-2-3.2H53v3.2C53,77.2,50.8,77.2,50.8,77.2
		z M65.2,72.1h2.1c0.3,0,0.5-0.1,0.7-0.4c0.2-0.3,0.3-0.6,0.3-1c0-0.4-0.1-0.7-0.3-1c-0.2-0.2-0.5-0.4-0.7-0.4h-2L65.2,72.1
		L65.2,72.1z M62.9,77.2v-9.8h4.4c0.5,0,0.9,0.1,1.3,0.3c0.4,0.2,0.7,0.4,1,0.8c0.3,0.3,0.5,0.7,0.7,1.1c0.2,0.4,0.2,0.8,0.2,1.2
		c0,0.6-0.1,1.2-0.4,1.7c-0.3,0.5-0.7,0.9-1.2,1.2l2.2,3.6h-2.5l-2-3.2h-1.5v3.2C65.2,77.2,62.9,77.2,62.9,77.2z M75,77.2h2.3v-9.8
		H75V77.2z M88.8,75.2v2h-6.9v-9.8h6.7v2h-4.5v1.9H88v1.8h-3.9v2.1L88.8,75.2z M98.7,70.3c-0.1-0.1-0.2-0.1-0.3-0.2
		c-0.4-0.3-0.9-0.5-1.4-0.6c-0.3-0.1-0.6-0.1-0.9-0.1c-0.4,0-0.7,0.1-0.9,0.2c-0.2,0.1-0.3,0.3-0.3,0.6c0,0.2,0,0.3,0.1,0.4
		s0.2,0.2,0.4,0.3s0.4,0.2,0.6,0.2c0.3,0.1,0.5,0.2,0.9,0.2c0.5,0.1,0.9,0.3,1.3,0.4c0.4,0.2,0.7,0.3,1,0.6c0.3,0.2,0.5,0.5,0.6,0.8
		c0.1,0.3,0.2,0.7,0.2,1.2c0,0.6-0.1,1-0.3,1.4c-0.2,0.4-0.5,0.7-0.8,0.9c-0.3,0.2-0.7,0.4-1.2,0.5c-0.4,0.1-0.9,0.2-1.4,0.2
		c-0.7,0-1.5-0.1-2.2-0.3c-0.4-0.1-0.7-0.2-1-0.4c-0.3-0.1-0.6-0.3-0.9-0.5l1-2c0,0,0.2,0.1,0.4,0.3c0.2,0.1,0.4,0.3,0.7,0.4
		c0.3,0.1,0.6,0.2,1,0.3c0.4,0.1,0.7,0.2,1.1,0.2c0.8,0,1.2-0.2,1.2-0.7c0-0.2-0.1-0.3-0.2-0.5c-0.1-0.1-0.3-0.2-0.5-0.3
		c-0.2-0.1-0.5-0.2-0.7-0.3c-0.3-0.1-0.6-0.2-0.9-0.3c-0.4-0.1-0.8-0.3-1.2-0.4c-0.3-0.1-0.6-0.3-0.8-0.6c-0.2-0.2-0.4-0.5-0.5-0.7
		c-0.1-0.3-0.2-0.6-0.2-1c0-0.5,0.1-1,0.3-1.4c0.2-0.4,0.5-0.7,0.8-1c0.3-0.3,0.7-0.5,1.2-0.6c0.4-0.1,0.9-0.2,1.4-0.2
		c0.3,0,0.7,0,1,0.1c0.6,0.1,1.2,0.3,1.8,0.6c0.3,0.1,0.5,0.3,0.7,0.4C99.7,68.4,98.7,70.3,98.7,70.3z"/>
</g>
</svg>
